<svg xmlns="http://www.w3.org/2000/svg" xmlns:xlink="http://www.w3.org/1999/xlink" width="880" zoomAndPan="magnify" viewBox="0 0 660 173.999997" height="232" preserveAspectRatio="xMidYMid meet" version="1.0"><defs><g/><clipPath id="97bc088b50"><path d="M 0.742188 12.152344 L 150.742188 12.152344 L 150.742188 142 L 0.742188 142 Z M 0.742188 12.152344 " clip-rule="nonzero"/></clipPath><clipPath id="029da6b3e4"><path d="M 41 146 L 110 146 L 110 162.152344 L 41 162.152344 Z M 41 146 " clip-rule="nonzero"/></clipPath><clipPath id="00706c1e3b"><path d="M 166.34375 16 L 167.84375 16 L 167.84375 158 L 166.34375 158 Z M 166.34375 16 " clip-rule="nonzero"/></clipPath></defs><g clip-path="url(#97bc088b50)"><path fill="#ffffff" d="M 9.878906 16.839844 C 7.535156 16.839844 5.429688 18.945312 5.429688 21.289062 L 5.429688 132.855469 C 5.429688 135.4375 7.535156 137.304688 9.878906 137.304688 L 141.605469 137.304688 C 144.175781 137.304688 146.054688 135.199219 146.054688 132.855469 L 146.054688 21.289062 C 146.054688 18.945312 143.949219 16.839844 141.605469 16.839844 Z M 141.605469 141.992188 L 9.878906 141.992188 C 4.722656 141.992188 0.742188 137.78125 0.742188 132.855469 L 0.742188 21.289062 C 0.742188 16.375 4.964844 12.152344 9.878906 12.152344 L 141.605469 12.152344 C 146.519531 12.152344 150.742188 16.375 150.742188 21.289062 L 150.742188 132.855469 C 150.742188 137.78125 146.519531 141.992188 141.605469 141.992188 " fill-opacity="1" fill-rule="nonzero"/></g><g clip-path="url(#029da6b3e4)"><path fill="#ffffff" d="M 109.953125 159.808594 C 109.953125 161.207031 109.019531 162.152344 107.609375 162.152344 L 43.863281 162.152344 C 42.691406 162.152344 41.519531 161.207031 41.519531 159.808594 C 41.519531 158.398438 42.691406 157.464844 43.863281 157.464844 L 52.769531 157.464844 L 52.769531 146.679688 L 98.941406 146.679688 L 98.941406 157.464844 L 107.847656 157.464844 C 109.019531 157.464844 109.953125 158.398438 109.953125 159.808594 " fill-opacity="1" fill-rule="nonzero"/></g><path fill="#ffffff" d="M 123.324219 79.175781 L 94.253906 93.71875 C 93.082031 94.183594 91.667969 93.945312 91.203125 92.773438 C 90.738281 91.601562 91.203125 90.203125 92.136719 89.734375 L 116.984375 77.3125 L 92.136719 64.648438 C 90.976562 64.179688 90.511719 62.769531 91.203125 61.609375 C 91.667969 60.425781 93.082031 59.960938 94.253906 60.664062 L 123.324219 75.195312 C 124.015625 75.671875 124.722656 76.367188 124.722656 77.3125 C 124.722656 78.242188 124.253906 78.710938 123.324219 79.175781 Z M 88.167969 51.050781 L 67.539062 104.730469 C 67.074219 105.902344 65.660156 106.609375 64.488281 106.140625 C 63.316406 105.664062 62.613281 104.265625 63.078125 103.078125 L 83.707031 49.414062 C 84.171875 48.242188 85.582031 47.546875 86.753906 48.015625 C 88.167969 48.480469 88.632812 49.890625 88.167969 51.050781 Z M 59.097656 89.496094 C 60.269531 89.960938 60.734375 91.601562 60.042969 92.546875 C 59.335938 93.71875 57.925781 94.183594 56.992188 93.476562 L 28.160156 78.949219 C 27.457031 78.484375 26.988281 77.777344 26.988281 76.832031 C 26.988281 75.898438 27.457031 75.195312 28.160156 74.726562 L 56.992188 60.425781 C 58.164062 59.734375 59.5625 60.199219 60.042969 61.371094 C 60.507812 62.542969 60.269531 63.953125 59.097656 64.421875 L 34.488281 76.832031 Z M 137.144531 23.40625 L 14.339844 23.40625 C 13.167969 23.40625 11.996094 24.578125 11.996094 25.75 L 11.996094 128.167969 C 11.996094 129.578125 13.167969 130.511719 14.339844 130.511719 L 136.917969 130.511719 C 138.078125 130.511719 139.261719 129.578125 139.261719 128.167969 L 139.261719 25.75 C 139.488281 24.578125 138.316406 23.40625 137.144531 23.40625 " fill-opacity="1" fill-rule="nonzero"/><g clip-path="url(#00706c1e3b)"><path fill="#ffffff" d="M 166.351562 157.785156 L 166.351562 16.511719 L 167.847656 16.511719 L 167.847656 157.785156 L 166.351562 157.785156 " fill-opacity="1" fill-rule="nonzero"/></g><g fill="#ffffff" fill-opacity="1"><g transform="translate(184.006034, 59.92307)"><g><path d="M 9.988281 0 L 9.988281 -33.695312 L 20.027344 0 L 26.28125 0 L 36.320312 -33.949219 L 36.320312 0 L 42.726562 0 L 42.726562 -38.488281 L 31.878906 -38.488281 L 23.152344 -7.769531 L 14.425781 -38.488281 L 3.582031 -38.488281 L 3.582031 0 Z M 9.988281 0 "/></g></g></g><g fill="#ffffff" fill-opacity="1"><g transform="translate(226.575472, 59.92307)"><g><path d="M 11.300781 0.554688 C 13.820312 0.554688 16.039062 0.152344 17.804688 -1.007812 C 18.917969 -1.714844 19.875 -2.722656 20.632812 -4.035156 L 20.632812 0 L 26.582031 0 L 26.582031 -15.285156 C 26.582031 -18.511719 26.582031 -22.953125 23.457031 -25.878906 C 21.335938 -27.792969 18.261719 -28.703125 14.980469 -28.703125 C 9.484375 -28.703125 4.1875 -25.675781 3.179688 -19.320312 L 9.128906 -19.320312 C 9.683594 -22.195312 12.105469 -23.910156 14.929688 -23.910156 C 16.746094 -23.910156 18.160156 -23.355469 19.167969 -22.347656 C 20.125 -21.335938 20.632812 -19.925781 20.683594 -18.007812 L 11.753906 -16.34375 C 9.179688 -15.839844 6.910156 -15.132812 5.195312 -13.871094 C 3.277344 -12.460938 2.117188 -10.441406 2.117188 -7.667969 C 2.117188 -2.421875 5.902344 0.554688 11.300781 0.554688 Z M 12.609375 -4.289062 C 9.9375 -4.289062 8.070312 -5.546875 8.070312 -7.820312 C 8.070312 -8.878906 8.425781 -9.683594 9.078125 -10.339844 C 9.9375 -11.148438 11.199219 -11.652344 13.214844 -12.054688 L 20.730469 -13.519531 C 20.730469 -9.484375 19.824219 -6.808594 16.496094 -5.144531 C 15.335938 -4.589844 14.023438 -4.289062 12.609375 -4.289062 Z M 12.609375 -4.289062 "/></g></g></g><g fill="#ffffff" fill-opacity="1"><g transform="translate(252.348776, 59.92307)"><g><path d="M 17.152344 0 L 17.152344 -4.992188 L 14.175781 -4.992188 C 11.703125 -4.992188 11.449219 -6.355469 11.449219 -8.171875 L 11.449219 -23.253906 L 17.203125 -23.253906 L 17.203125 -28.199219 L 11.449219 -28.199219 L 11.449219 -38.488281 L 5.5 -38.488281 L 5.5 -28.199219 L 1.261719 -28.199219 L 1.261719 -23.253906 L 5.5 -23.253906 L 5.5 -6.507812 C 5.5 -1.664062 7.917969 0 12.105469 0 Z M 17.152344 0 "/></g></g></g><g fill="#ffffff" fill-opacity="1"><g transform="translate(267.529928, 59.92307)"><g><path d="M 17.152344 0 L 17.152344 -4.992188 L 14.175781 -4.992188 C 11.703125 -4.992188 11.449219 -6.355469 11.449219 -8.171875 L 11.449219 -23.253906 L 17.203125 -23.253906 L 17.203125 -28.199219 L 11.449219 -28.199219 L 11.449219 -38.488281 L 5.5 -38.488281 L 5.5 -28.199219 L 1.261719 -28.199219 L 1.261719 -23.253906 L 5.5 -23.253906 L 5.5 -6.507812 C 5.5 -1.664062 7.917969 0 12.105469 0 Z M 17.152344 0 "/></g></g></g><g fill="#ffffff" fill-opacity="1"><g transform="translate(282.71108, 59.92307)"><g><path d="M 9.230469 0 L 9.230469 -13.570312 C 9.230469 -18.007812 9.835938 -20.378906 11.199219 -21.890625 C 12.207031 -23.101562 13.671875 -23.707031 15.738281 -23.707031 C 17.453125 -23.707031 18.714844 -23.304688 19.570312 -22.347656 C 20.582031 -21.238281 21.035156 -19.421875 21.035156 -16.496094 L 21.035156 0 L 26.988281 0 L 26.988281 -16.496094 C 26.988281 -18.964844 26.988281 -21.589844 25.777344 -24.113281 C 24.464844 -26.683594 22.042969 -28.703125 17.152344 -28.703125 C 14.125 -28.703125 11.703125 -27.695312 9.230469 -24.363281 L 9.230469 -38.488281 L 3.277344 -38.488281 L 3.277344 0 Z M 9.230469 0 "/></g></g></g><g fill="#ffffff" fill-opacity="1"><g transform="translate(308.988766, 59.92307)"><g><path d="M 16.191406 0.554688 C 23.609375 0.554688 27.894531 -3.933594 29.558594 -9.332031 L 23.40625 -9.332031 C 22.398438 -6.808594 19.925781 -4.640625 16.34375 -4.640625 C 13.117188 -4.640625 10.441406 -6.558594 9.128906 -9.734375 C 8.625 -10.59375 8.324219 -11.804688 8.171875 -12.863281 L 30.0625 -12.863281 L 30.0625 -14.375 C 30.0625 -24.164062 23.253906 -28.703125 16.039062 -28.703125 C 6.757812 -28.703125 2.117188 -21.386719 2.117188 -13.972656 C 2.117188 -5.648438 7.769531 0.554688 16.191406 0.554688 Z M 8.523438 -17.554688 C 8.675781 -18.3125 8.929688 -19.320312 9.535156 -20.226562 C 10.945312 -22.597656 13.316406 -23.859375 16.242188 -23.859375 C 19.066406 -23.859375 21.589844 -22.648438 22.953125 -20.226562 C 23.507812 -19.371094 23.757812 -18.363281 23.859375 -17.554688 Z M 8.523438 -17.554688 "/></g></g></g><g fill="#ffffff" fill-opacity="1"><g transform="translate(337.334449, 59.92307)"><g><path d="M 15.03125 0 L 21.085938 -19.976562 L 26.988281 0 L 32.585938 0 L 41.210938 -28.199219 L 34.855469 -28.199219 L 29.609375 -8.980469 L 23.65625 -28.199219 L 18.410156 -28.199219 L 12.511719 -8.980469 L 7.3125 -28.199219 L 0.957031 -28.199219 L 9.433594 0 Z M 15.03125 0 "/></g></g></g><g fill="#ffffff" fill-opacity="1"><g transform="translate(375.717464, 59.92307)"><g/></g></g><g fill="#ffffff" fill-opacity="1"><g transform="translate(385.652982, 59.92307)"><g><path d="M 9.988281 0 L 9.988281 -16.445312 L 27.390625 -16.445312 L 27.390625 0 L 33.796875 0 L 33.796875 -38.488281 L 27.390625 -38.488281 L 27.390625 -22.144531 L 9.988281 -22.144531 L 9.988281 -38.488281 L 3.582031 -38.488281 L 3.582031 0 Z M 9.988281 0 "/></g></g></g><g fill="#ffffff" fill-opacity="1"><g transform="translate(419.345187, 59.92307)"><g><path d="M 16.191406 0.554688 C 23.609375 0.554688 27.894531 -3.933594 29.558594 -9.332031 L 23.40625 -9.332031 C 22.398438 -6.808594 19.925781 -4.640625 16.34375 -4.640625 C 13.117188 -4.640625 10.441406 -6.558594 9.128906 -9.734375 C 8.625 -10.59375 8.324219 -11.804688 8.171875 -12.863281 L 30.0625 -12.863281 L 30.0625 -14.375 C 30.0625 -24.164062 23.253906 -28.703125 16.039062 -28.703125 C 6.757812 -28.703125 2.117188 -21.386719 2.117188 -13.972656 C 2.117188 -5.648438 7.769531 0.554688 16.191406 0.554688 Z M 8.523438 -17.554688 C 8.675781 -18.3125 8.929688 -19.320312 9.535156 -20.226562 C 10.945312 -22.597656 13.316406 -23.859375 16.242188 -23.859375 C 19.066406 -23.859375 21.589844 -22.648438 22.953125 -20.226562 C 23.507812 -19.371094 23.757812 -18.363281 23.859375 -17.554688 Z M 8.523438 -17.554688 "/></g></g></g><g fill="#ffffff" fill-opacity="1"><g transform="translate(447.69087, 59.92307)"><g><path d="M 16.191406 0.554688 C 23.609375 0.554688 27.894531 -3.933594 29.558594 -9.332031 L 23.40625 -9.332031 C 22.398438 -6.808594 19.925781 -4.640625 16.34375 -4.640625 C 13.117188 -4.640625 10.441406 -6.558594 9.128906 -9.734375 C 8.625 -10.59375 8.324219 -11.804688 8.171875 -12.863281 L 30.0625 -12.863281 L 30.0625 -14.375 C 30.0625 -24.164062 23.253906 -28.703125 16.039062 -28.703125 C 6.757812 -28.703125 2.117188 -21.386719 2.117188 -13.972656 C 2.117188 -5.648438 7.769531 0.554688 16.191406 0.554688 Z M 8.523438 -17.554688 C 8.675781 -18.3125 8.929688 -19.320312 9.535156 -20.226562 C 10.945312 -22.597656 13.316406 -23.859375 16.242188 -23.859375 C 19.066406 -23.859375 21.589844 -22.648438 22.953125 -20.226562 C 23.507812 -19.371094 23.757812 -18.363281 23.859375 -17.554688 Z M 8.523438 -17.554688 "/></g></g></g><g fill="#ffffff" fill-opacity="1"><g transform="translate(476.036554, 59.92307)"><g><path d="M 9.230469 0 L 9.230469 -13.621094 C 9.230469 -17.25 9.988281 -19.621094 11.550781 -21.085938 C 12.761719 -22.296875 14.425781 -22.902344 16.746094 -22.902344 L 18.261719 -22.902344 L 18.261719 -28.703125 L 17.605469 -28.703125 C 14.125 -28.703125 11.550781 -27.695312 9.230469 -24.667969 L 9.230469 -28.199219 L 3.277344 -28.199219 L 3.277344 0 Z M 9.230469 0 "/></g></g></g><g fill="#ffffff" fill-opacity="1"><g transform="translate(491.520328, 59.92307)"><g><path d="M 6.253906 -31.828125 C 8.425781 -31.828125 10.140625 -33.34375 10.140625 -35.460938 C 10.140625 -37.582031 8.425781 -39.09375 6.253906 -39.09375 C 4.136719 -39.09375 2.371094 -37.582031 2.371094 -35.460938 C 2.371094 -33.34375 4.136719 -31.828125 6.253906 -31.828125 Z M 9.230469 0 L 9.230469 -28.199219 L 3.277344 -28.199219 L 3.277344 0 Z M 9.230469 0 "/></g></g></g><g fill="#ffffff" fill-opacity="1"><g transform="translate(500.194855, 59.92307)"><g><path d="M 9.230469 0 L 9.230469 -13.570312 C 9.230469 -18.007812 9.785156 -20.378906 11.148438 -21.890625 C 12.15625 -23.101562 13.671875 -23.707031 15.738281 -23.707031 C 17.453125 -23.707031 18.714844 -23.304688 19.570312 -22.347656 C 20.582031 -21.238281 20.984375 -19.421875 20.984375 -16.496094 L 20.984375 0 L 26.988281 0 L 26.988281 -16.496094 C 26.988281 -18.964844 26.988281 -21.589844 25.726562 -24.113281 C 24.464844 -26.683594 21.992188 -28.703125 17.101562 -28.703125 C 14.074219 -28.703125 11.703125 -27.695312 9.230469 -24.363281 L 9.230469 -28.199219 L 3.277344 -28.199219 L 3.277344 0 Z M 9.230469 0 "/></g></g></g><g fill="#ffffff" fill-opacity="1"><g transform="translate(526.422101, 59.92307)"><g><path d="M 16.039062 10.84375 C 23.457031 10.84375 29.054688 8.019531 29.054688 -1.5625 L 29.054688 -28.199219 L 23.101562 -28.199219 L 23.101562 -24.363281 C 20.632812 -27.695312 18.210938 -28.703125 14.679688 -28.703125 C 7.265625 -28.703125 2.269531 -22.699219 2.269531 -14.226562 C 2.269531 -5.851562 7.265625 0.152344 14.730469 0.152344 C 18.160156 0.152344 20.632812 -0.859375 23.101562 -4.238281 L 23.101562 -0.203125 C 23.101562 3.53125 21.035156 6.054688 15.992188 6.054688 C 12.207031 6.054688 10.039062 4.742188 9.128906 1.765625 L 3.128906 1.765625 C 4.289062 8.929688 10.289062 10.84375 16.039062 10.84375 Z M 15.890625 -4.992188 C 11.199219 -4.992188 8.273438 -9.03125 8.273438 -14.277344 C 8.273438 -19.523438 11.25 -23.558594 15.890625 -23.558594 C 20.480469 -23.558594 23.707031 -19.621094 23.707031 -14.277344 C 23.707031 -8.929688 20.53125 -4.992188 15.890625 -4.992188 Z M 15.890625 -4.992188 "/></g></g></g><g fill="#ffffff" fill-opacity="1"><g transform="translate(184.006034, 149.789301)"><g><path d="M 29.054688 0 L 29.054688 -5.75 L 9.988281 -5.75 L 9.988281 -16.445312 L 26.9375 -16.445312 L 26.9375 -22.144531 L 9.988281 -22.144531 L 9.988281 -32.738281 L 29.054688 -32.738281 L 29.054688 -38.488281 L 3.582031 -38.488281 L 3.582031 0 Z M 29.054688 0 "/></g></g></g><g fill="#ffffff" fill-opacity="1"><g transform="translate(211.443817, 149.789301)"><g><path d="M 14.628906 0.554688 C 18.160156 0.554688 20.582031 -0.503906 23.050781 -3.832031 L 23.050781 0 L 29.003906 0 L 29.003906 -38.488281 L 23.050781 -38.488281 L 23.050781 -24.363281 C 20.53125 -27.742188 18.058594 -28.703125 14.628906 -28.703125 C 7.214844 -28.703125 2.21875 -22.699219 2.21875 -14.074219 C 2.21875 -5.449219 7.214844 0.554688 14.628906 0.554688 Z M 15.839844 -4.589844 C 11.148438 -4.589844 8.222656 -8.625 8.222656 -14.074219 C 8.222656 -19.523438 11.148438 -23.558594 15.839844 -23.558594 C 20.429688 -23.558594 23.65625 -19.621094 23.65625 -14.074219 C 23.65625 -8.523438 20.429688 -4.589844 15.839844 -4.589844 Z M 15.839844 -4.589844 "/></g></g></g><g fill="#ffffff" fill-opacity="1"><g transform="translate(239.940819, 149.789301)"><g><path d="M 12.964844 0.554688 C 16.242188 0.554688 18.5625 -0.757812 20.882812 -3.832031 L 20.882812 0 L 26.835938 0 L 26.835938 -28.199219 L 20.882812 -28.199219 L 20.882812 -14.578125 C 20.882812 -10.238281 20.328125 -7.820312 18.917969 -6.253906 C 17.855469 -5.09375 16.394531 -4.4375 14.375 -4.4375 C 12.609375 -4.4375 11.351562 -4.894531 10.542969 -5.800781 C 9.535156 -6.910156 9.078125 -8.726562 9.078125 -11.652344 L 9.078125 -28.199219 L 3.128906 -28.199219 L 3.128906 -11.703125 C 3.128906 -7.917969 3.429688 -5.902344 4.339844 -4.085938 C 5.851562 -1.007812 8.726562 0.554688 12.964844 0.554688 Z M 12.964844 0.554688 "/></g></g></g><g fill="#ffffff" fill-opacity="1"><g transform="translate(266.218509, 149.789301)"><g><path d="M 16.140625 0.554688 C 22.800781 0.554688 27.894531 -3.128906 29.207031 -9.332031 L 22.75 -9.332031 C 21.992188 -6.355469 19.621094 -4.4375 16.140625 -4.4375 C 11.449219 -4.4375 8.171875 -8.324219 8.171875 -14.226562 C 8.171875 -19.925781 11.449219 -23.757812 16.140625 -23.757812 C 19.320312 -23.757812 21.640625 -22.144531 22.597656 -19.320312 L 29.054688 -19.320312 C 27.742188 -25.070312 22.800781 -28.703125 16.140625 -28.703125 C 7.769531 -28.703125 2.117188 -22.699219 2.117188 -14.226562 C 2.117188 -5.449219 7.820312 0.554688 16.140625 0.554688 Z M 16.140625 0.554688 "/></g></g></g><g fill="#ffffff" fill-opacity="1"><g transform="translate(293.404105, 149.789301)"><g><path d="M 11.300781 0.554688 C 13.820312 0.554688 16.039062 0.152344 17.804688 -1.007812 C 18.917969 -1.714844 19.875 -2.722656 20.632812 -4.035156 L 20.632812 0 L 26.582031 0 L 26.582031 -15.285156 C 26.582031 -18.511719 26.582031 -22.953125 23.457031 -25.878906 C 21.335938 -27.792969 18.261719 -28.703125 14.980469 -28.703125 C 9.484375 -28.703125 4.1875 -25.675781 3.179688 -19.320312 L 9.128906 -19.320312 C 9.683594 -22.195312 12.105469 -23.910156 14.929688 -23.910156 C 16.746094 -23.910156 18.160156 -23.355469 19.167969 -22.347656 C 20.125 -21.335938 20.632812 -19.925781 20.683594 -18.007812 L 11.753906 -16.34375 C 9.179688 -15.839844 6.910156 -15.132812 5.195312 -13.871094 C 3.277344 -12.460938 2.117188 -10.441406 2.117188 -7.667969 C 2.117188 -2.421875 5.902344 0.554688 11.300781 0.554688 Z M 12.609375 -4.289062 C 9.9375 -4.289062 8.070312 -5.546875 8.070312 -7.820312 C 8.070312 -8.878906 8.425781 -9.683594 9.078125 -10.339844 C 9.9375 -11.148438 11.199219 -11.652344 13.214844 -12.054688 L 20.730469 -13.519531 C 20.730469 -9.484375 19.824219 -6.808594 16.496094 -5.144531 C 15.335938 -4.589844 14.023438 -4.289062 12.609375 -4.289062 Z M 12.609375 -4.289062 "/></g></g></g><g fill="#ffffff" fill-opacity="1"><g transform="translate(319.177405, 149.789301)"><g><path d="M 17.152344 0 L 17.152344 -4.992188 L 14.175781 -4.992188 C 11.703125 -4.992188 11.449219 -6.355469 11.449219 -8.171875 L 11.449219 -23.253906 L 17.203125 -23.253906 L 17.203125 -28.199219 L 11.449219 -28.199219 L 11.449219 -38.488281 L 5.5 -38.488281 L 5.5 -28.199219 L 1.261719 -28.199219 L 1.261719 -23.253906 L 5.5 -23.253906 L 5.5 -6.507812 C 5.5 -1.664062 7.917969 0 12.105469 0 Z M 17.152344 0 "/></g></g></g><g fill="#ffffff" fill-opacity="1"><g transform="translate(334.358557, 149.789301)"><g><path d="M 16.292969 0.554688 C 24.769531 0.554688 30.519531 -5.546875 30.519531 -14.226562 C 30.519531 -22.699219 24.667969 -28.703125 16.292969 -28.703125 C 7.917969 -28.703125 2.117188 -22.699219 2.117188 -14.226562 C 2.117188 -5.449219 7.917969 0.554688 16.292969 0.554688 Z M 16.292969 -4.640625 C 11.601562 -4.640625 8.171875 -8.523438 8.171875 -14.226562 C 8.171875 -19.671875 11.550781 -23.558594 16.292969 -23.558594 C 21.035156 -23.558594 24.414062 -19.570312 24.414062 -14.226562 C 24.414062 -8.625 21.035156 -4.640625 16.292969 -4.640625 Z M 16.292969 -4.640625 "/></g></g></g><g fill="#ffffff" fill-opacity="1"><g transform="translate(363.208635, 149.789301)"><g><path d="M 9.230469 0 L 9.230469 -13.621094 C 9.230469 -17.25 9.988281 -19.621094 11.550781 -21.085938 C 12.761719 -22.296875 14.425781 -22.902344 16.746094 -22.902344 L 18.261719 -22.902344 L 18.261719 -28.703125 L 17.605469 -28.703125 C 14.125 -28.703125 11.550781 -27.695312 9.230469 -24.667969 L 9.230469 -28.199219 L 3.277344 -28.199219 L 3.277344 0 Z M 9.230469 0 "/></g></g></g><g fill="#ffffff" fill-opacity="1"><g transform="translate(378.692427, 149.789301)"><g/></g></g><g fill="#ffffff" fill-opacity="1"><g transform="translate(388.627944, 149.789301)"><g><path d="M 10.996094 5.546875 L 10.996094 -43.988281 L 5.851562 -43.988281 L 5.851562 5.546875 Z M 10.996094 5.546875 "/></g></g></g><g fill="#ffffff" fill-opacity="1"><g transform="translate(401.64024, 149.789301)"><g/></g></g><g fill="#ffffff" fill-opacity="1"><g transform="translate(411.575757, 149.789301)"><g><path d="M 14.578125 0 C 27.542969 0 34.605469 -6.910156 34.605469 -19.21875 C 34.605469 -31.578125 27.542969 -38.488281 14.628906 -38.488281 L 3.582031 -38.488281 L 3.582031 0 Z M 9.988281 -32.738281 L 14.527344 -32.738281 C 22.699219 -32.738281 28.199219 -28.855469 28.199219 -19.21875 C 28.199219 -8.777344 22.347656 -5.75 14.527344 -5.75 L 9.988281 -5.75 Z M 9.988281 -32.738281 "/></g></g></g><g fill="#ffffff" fill-opacity="1"><g transform="translate(444.612252, 149.789301)"><g><path d="M 16.191406 0.554688 C 23.609375 0.554688 27.894531 -3.933594 29.558594 -9.332031 L 23.40625 -9.332031 C 22.398438 -6.808594 19.925781 -4.640625 16.34375 -4.640625 C 13.117188 -4.640625 10.441406 -6.558594 9.128906 -9.734375 C 8.625 -10.59375 8.324219 -11.804688 8.171875 -12.863281 L 30.0625 -12.863281 L 30.0625 -14.375 C 30.0625 -24.164062 23.253906 -28.703125 16.039062 -28.703125 C 6.757812 -28.703125 2.117188 -21.386719 2.117188 -13.972656 C 2.117188 -5.648438 7.769531 0.554688 16.191406 0.554688 Z M 8.523438 -17.554688 C 8.675781 -18.3125 8.929688 -19.320312 9.535156 -20.226562 C 10.945312 -22.597656 13.316406 -23.859375 16.242188 -23.859375 C 19.066406 -23.859375 21.589844 -22.648438 22.953125 -20.226562 C 23.507812 -19.371094 23.757812 -18.363281 23.859375 -17.554688 Z M 8.523438 -17.554688 "/></g></g></g><g fill="#ffffff" fill-opacity="1"><g transform="translate(472.957935, 149.789301)"><g><path d="M 15.941406 0 L 26.382812 -28.199219 L 19.976562 -28.199219 L 13.46875 -9.382812 L 7.164062 -28.199219 L 0.707031 -28.199219 L 11.097656 0 Z M 15.941406 0 "/></g></g></g><g fill="#ffffff" fill-opacity="1"><g transform="translate(496.259729, 149.789301)"><g><path d="M 16.191406 0.554688 C 23.609375 0.554688 27.894531 -3.933594 29.558594 -9.332031 L 23.40625 -9.332031 C 22.398438 -6.808594 19.925781 -4.640625 16.34375 -4.640625 C 13.117188 -4.640625 10.441406 -6.558594 9.128906 -9.734375 C 8.625 -10.59375 8.324219 -11.804688 8.171875 -12.863281 L 30.0625 -12.863281 L 30.0625 -14.375 C 30.0625 -24.164062 23.253906 -28.703125 16.039062 -28.703125 C 6.757812 -28.703125 2.117188 -21.386719 2.117188 -13.972656 C 2.117188 -5.648438 7.769531 0.554688 16.191406 0.554688 Z M 8.523438 -17.554688 C 8.675781 -18.3125 8.929688 -19.320312 9.535156 -20.226562 C 10.945312 -22.597656 13.316406 -23.859375 16.242188 -23.859375 C 19.066406 -23.859375 21.589844 -22.648438 22.953125 -20.226562 C 23.507812 -19.371094 23.757812 -18.363281 23.859375 -17.554688 Z M 8.523438 -17.554688 "/></g></g></g><g fill="#ffffff" fill-opacity="1"><g transform="translate(524.605412, 149.789301)"><g><path d="M 13.417969 0 L 13.417969 -4.992188 L 11.753906 -4.992188 C 9.632812 -4.992188 9.078125 -5.953125 9.078125 -8.070312 L 9.078125 -38.488281 L 3.128906 -38.488281 L 3.128906 -6.507812 C 3.128906 -1.664062 5.546875 0 9.734375 0 Z M 13.417969 0 "/></g></g></g><g fill="#ffffff" fill-opacity="1"><g transform="translate(535.600129, 149.789301)"><g><path d="M 16.292969 0.554688 C 24.769531 0.554688 30.519531 -5.546875 30.519531 -14.226562 C 30.519531 -22.699219 24.667969 -28.703125 16.292969 -28.703125 C 7.917969 -28.703125 2.117188 -22.699219 2.117188 -14.226562 C 2.117188 -5.449219 7.917969 0.554688 16.292969 0.554688 Z M 16.292969 -4.640625 C 11.601562 -4.640625 8.171875 -8.523438 8.171875 -14.226562 C 8.171875 -19.671875 11.550781 -23.558594 16.292969 -23.558594 C 21.035156 -23.558594 24.414062 -19.570312 24.414062 -14.226562 C 24.414062 -8.625 21.035156 -4.640625 16.292969 -4.640625 Z M 16.292969 -4.640625 "/></g></g></g><g fill="#ffffff" fill-opacity="1"><g transform="translate(564.450217, 149.789301)"><g><path d="M 17.65625 -28.753906 C 14.125 -28.753906 11.703125 -27.695312 9.230469 -24.363281 L 9.230469 -28.199219 L 3.277344 -28.199219 L 3.277344 10.289062 L 9.230469 10.289062 L 9.230469 -3.832031 C 11.753906 -0.453125 14.226562 0.503906 17.65625 0.503906 C 25.070312 0.503906 30.0625 -5.5 30.0625 -14.125 C 30.0625 -22.75 25.070312 -28.753906 17.65625 -28.753906 Z M 16.445312 -23.609375 C 21.136719 -23.609375 24.0625 -19.570312 24.0625 -14.125 C 24.0625 -8.675781 21.136719 -4.640625 16.445312 -4.640625 C 11.855469 -4.640625 8.625 -8.574219 8.625 -14.125 C 8.625 -19.671875 11.855469 -23.609375 16.445312 -23.609375 Z M 16.445312 -23.609375 "/></g></g></g><g fill="#ffffff" fill-opacity="1"><g transform="translate(592.947206, 149.789301)"><g><path d="M 16.191406 0.554688 C 23.609375 0.554688 27.894531 -3.933594 29.558594 -9.332031 L 23.40625 -9.332031 C 22.398438 -6.808594 19.925781 -4.640625 16.34375 -4.640625 C 13.117188 -4.640625 10.441406 -6.558594 9.128906 -9.734375 C 8.625 -10.59375 8.324219 -11.804688 8.171875 -12.863281 L 30.0625 -12.863281 L 30.0625 -14.375 C 30.0625 -24.164062 23.253906 -28.703125 16.039062 -28.703125 C 6.757812 -28.703125 2.117188 -21.386719 2.117188 -13.972656 C 2.117188 -5.648438 7.769531 0.554688 16.191406 0.554688 Z M 8.523438 -17.554688 C 8.675781 -18.3125 8.929688 -19.320312 9.535156 -20.226562 C 10.945312 -22.597656 13.316406 -23.859375 16.242188 -23.859375 C 19.066406 -23.859375 21.589844 -22.648438 22.953125 -20.226562 C 23.507812 -19.371094 23.757812 -18.363281 23.859375 -17.554688 Z M 8.523438 -17.554688 "/></g></g></g><g fill="#ffffff" fill-opacity="1"><g transform="translate(621.29289, 149.789301)"><g><path d="M 9.230469 0 L 9.230469 -13.621094 C 9.230469 -17.25 9.988281 -19.621094 11.550781 -21.085938 C 12.761719 -22.296875 14.425781 -22.902344 16.746094 -22.902344 L 18.261719 -22.902344 L 18.261719 -28.703125 L 17.605469 -28.703125 C 14.125 -28.703125 11.550781 -27.695312 9.230469 -24.667969 L 9.230469 -28.199219 L 3.277344 -28.199219 L 3.277344 0 Z M 9.230469 0 "/></g></g></g></svg>